<svg xmlns="http://www.w3.org/2000/svg" width="24" height="24" viewBox="0 0 24 24" fill="none" stroke="currentColor" stroke-width="2" stroke-linecap="round" stroke-linejoin="round">
  <path d="M17.498 14.382c-.301-.15-1.767-.867-2.04-.966-.273-.101-.473-.15-.673.15-.2.3-.767.966-.94 1.164-.173.199-.347.223-.647.075-.3-.15-1.269-.467-2.416-1.483-.893-.795-1.484-1.77-1.66-2.07-.174-.3-.019-.462.13-.61.136-.137.3-.354.45-.53.149-.174.2-.3.3-.498.099-.2.05-.374-.025-.524-.075-.15-.672-1.62-.922-2.206-.24-.584-.487-.51-.672-.51-.172-.007-.371-.01-.571-.01-.2 0-.523.074-.797.372-.273.297-1.045 1.019-1.045 2.487 0 1.47 1.069 2.885 1.22 3.086.149.198 2.095 3.2 5.076 4.487.709.306 1.262.489 1.694.625.712.227 1.36.195 1.871.118.571-.085 1.758-.719 2.006-1.413.248-.694.248-1.289.173-1.413-.074-.124-.272-.198-.571-.347z"></path>
  <path d="M22 12.5C22 6.7 17.3 2 11.5 2S1 6.7 1 12.5c0 5.8 4.7 10.5 10.5 10.5 1.8 0 3.5-.5 5-1.3l3.8 1.3-1.3-3.7c.8-1.6 1.3-3.3 1.3-5.1.3-1 .7-1.2 1.7-1.2z"></path>
</svg>