<svg width="113" height="24" viewBox="0 0 113 24" fill="none" xmlns="http://www.w3.org/2000/svg">
<path d="M17.72 5H20.3V19H17.9V8.26L11.24 16.34H11.1L4.44 8.26V19H2.12V5H4.72L11.22 13.02L17.72 5ZM38.5423 19L36.7423 15.62H27.7623L25.9823 19H23.3823L30.9623 5H33.6023L41.1623 19H38.5423ZM28.8423 13.58H35.6823L32.2623 7.1L28.8423 13.58ZM59.2256 11.42V15.86C57.9456 17.92 55.1656 19.42 51.3256 19.42C45.8056 19.42 42.5056 16.62 42.5056 12C42.5056 7.38 45.8056 4.58 51.2856 4.58C54.7256 4.58 57.0856 5.86 58.4856 7.36L56.5256 8.76C55.2856 7.36 53.6456 6.68 51.3056 6.68C47.3656 6.68 44.9456 8.48 44.9456 12C44.9456 15.52 47.4056 17.32 51.4256 17.32C53.8856 17.32 55.8856 16.68 56.9056 15.08V13.48H51.0656V11.42H59.2256ZM76.0213 19L74.2213 15.62H65.2413L63.4613 19H60.8613L68.4413 5H71.0813L78.6413 19H76.0213ZM66.3213 13.58H73.1613L69.7413 7.1L66.3213 13.58ZM84.1458 16.88H94.4658V19H81.7458V5H84.1458V16.88Z" fill="#AC6CE9"/>
<mask id="path-2-outside-1_1741_41" maskUnits="userSpaceOnUse" x="109" y="7" width="3" height="12" fill="black">
<rect fill="white" x="109" y="7" width="3" height="12"/>
<path d="M109.299 17.043C109.299 16.737 109.393 16.4798 109.582 16.2715C109.777 16.0566 110.057 15.9492 110.422 15.9492C110.786 15.9492 111.063 16.0566 111.252 16.2715C111.447 16.4798 111.545 16.737 111.545 17.043C111.545 17.3424 111.447 17.5964 111.252 17.8047C111.063 18.013 110.786 18.1172 110.422 18.1172C110.057 18.1172 109.777 18.013 109.582 17.8047C109.393 17.5964 109.299 17.3424 109.299 17.043ZM109.309 8.41992C109.309 8.11393 109.403 7.85677 109.592 7.64844C109.787 7.43359 110.067 7.32617 110.432 7.32617C110.796 7.32617 111.073 7.43359 111.262 7.64844C111.457 7.85677 111.555 8.11393 111.555 8.41992C111.555 8.7194 111.457 8.97331 111.262 9.18164C111.073 9.38997 110.796 9.49414 110.432 9.49414C110.067 9.49414 109.787 9.38997 109.592 9.18164C109.403 8.97331 109.309 8.7194 109.309 8.41992Z"/>
</mask>
<path d="M109.299 17.043C109.299 16.737 109.393 16.4798 109.582 16.2715C109.777 16.0566 110.057 15.9492 110.422 15.9492C110.786 15.9492 111.063 16.0566 111.252 16.2715C111.447 16.4798 111.545 16.737 111.545 17.043C111.545 17.3424 111.447 17.5964 111.252 17.8047C111.063 18.013 110.786 18.1172 110.422 18.1172C110.057 18.1172 109.777 18.013 109.582 17.8047C109.393 17.5964 109.299 17.3424 109.299 17.043ZM109.309 8.41992C109.309 8.11393 109.403 7.85677 109.592 7.64844C109.787 7.43359 110.067 7.32617 110.432 7.32617C110.796 7.32617 111.073 7.43359 111.262 7.64844C111.457 7.85677 111.555 8.11393 111.555 8.41992C111.555 8.7194 111.457 8.97331 111.262 9.18164C111.073 9.38997 110.796 9.49414 110.432 9.49414C110.067 9.49414 109.787 9.38997 109.592 9.18164C109.403 8.97331 109.309 8.7194 109.309 8.41992Z" fill="#AC6CE9"/>
<path d="M109.582 16.2715L109.471 16.1706L109.471 16.1708L109.582 16.2715ZM111.252 16.2715L111.139 16.3706L111.143 16.3741L111.252 16.2715ZM111.252 17.8047L111.143 17.7021L111.141 17.704L111.252 17.8047ZM109.582 17.8047L109.471 17.9054L109.473 17.9073L109.582 17.8047ZM109.592 7.64844L109.481 7.54754L109.481 7.54771L109.592 7.64844ZM111.262 7.64844L111.149 7.74751L111.152 7.75103L111.262 7.64844ZM111.262 9.18164L111.152 9.07903L111.151 9.08091L111.262 9.18164ZM109.592 9.18164L109.481 9.28238L109.482 9.28423L109.592 9.18164ZM109.299 17.043H109.449C109.449 16.7706 109.532 16.5504 109.693 16.3722L109.582 16.2715L109.471 16.1708C109.255 16.4092 109.149 16.7033 109.149 17.043H109.299ZM109.582 16.2715L109.693 16.3724C109.853 16.1965 110.088 16.0992 110.422 16.0992V15.9492V15.7992C110.027 15.7992 109.702 15.9168 109.471 16.1706L109.582 16.2715ZM110.422 15.9492V16.0992C110.756 16.0992 110.986 16.1965 111.139 16.3705L111.252 16.2715L111.365 16.1725C111.14 15.9168 110.817 15.7992 110.422 15.7992V15.9492ZM111.252 16.2715L111.143 16.3741C111.31 16.5525 111.395 16.7721 111.395 17.043H111.545H111.695C111.695 16.7019 111.585 16.4071 111.361 16.1689L111.252 16.2715ZM111.545 17.043H111.395C111.395 17.3064 111.31 17.523 111.143 17.7021L111.252 17.8047L111.361 17.9073C111.584 17.6697 111.695 17.3785 111.695 17.043H111.545ZM111.252 17.8047L111.141 17.704C110.988 17.8722 110.757 17.9672 110.422 17.9672V18.1172V18.2672C110.815 18.2672 111.138 18.1538 111.363 17.9054L111.252 17.8047ZM110.422 18.1172V17.9672C110.087 17.9672 109.851 17.8723 109.691 17.7021L109.582 17.8047L109.473 17.9073C109.704 18.1537 110.028 18.2672 110.422 18.2672V18.1172ZM109.582 17.8047L109.693 17.704C109.531 17.5251 109.449 17.3079 109.449 17.043H109.299H109.149C109.149 17.377 109.255 17.6676 109.471 17.9054L109.582 17.8047ZM109.309 8.41992H109.459C109.459 8.1476 109.541 7.92737 109.703 7.74917L109.592 7.64844L109.481 7.54771C109.265 7.78617 109.159 8.08027 109.159 8.41992H109.309ZM109.592 7.64844L109.703 7.74934C109.863 7.57341 110.098 7.47617 110.432 7.47617V7.32617V7.17617C110.036 7.17617 109.711 7.29378 109.481 7.54754L109.592 7.64844ZM110.432 7.32617V7.47617C110.766 7.47617 110.996 7.57347 111.149 7.74745L111.262 7.64844L111.374 7.54942C111.15 7.29372 110.827 7.17617 110.432 7.17617V7.32617ZM111.262 7.64844L111.152 7.75103C111.32 7.92946 111.405 8.14906 111.405 8.41992H111.555H111.705C111.705 8.07881 111.594 7.78409 111.371 7.54585L111.262 7.64844ZM111.555 8.41992H111.405C111.405 8.68334 111.32 8.89998 111.152 9.07905L111.262 9.18164L111.371 9.28423C111.594 9.04664 111.705 8.75546 111.705 8.41992H111.555ZM111.262 9.18164L111.151 9.08091C110.998 9.2492 110.767 9.34414 110.432 9.34414V9.49414V9.64414C110.825 9.64414 111.148 9.53075 111.373 9.28237L111.262 9.18164ZM110.432 9.49414V9.34414C110.096 9.34414 109.861 9.24928 109.701 9.07905L109.592 9.18164L109.482 9.28423C109.713 9.53067 110.038 9.64414 110.432 9.64414V9.49414ZM109.592 9.18164L109.703 9.08091C109.541 8.90207 109.459 8.68482 109.459 8.41992H109.309H109.159C109.159 8.75399 109.265 9.04454 109.481 9.28237L109.592 9.18164Z" fill="#AC6CE9" mask="url(#path-2-outside-1_1741_41)"/>
</svg>
