<svg width="64" height="64" viewBox="0 0 64 64" fill="none" xmlns="http://www.w3.org/2000/svg">
<rect width="64" height="64" rx="9" fill="#AC6CE9"/>
<path d="M14.7034 33.0217C16.3377 33.2983 17.9468 33.8514 17.9468 35.4354C17.9468 37.2206 16.564 38.0754 14.4268 38.0754C12.3651 38.0754 11.2588 37.4469 11.2588 37.4469V34.9829H11.46C12.0885 36.6926 13.3708 37.4971 14.804 37.4971C15.508 37.4971 16.1114 37.2206 16.1114 36.768C16.1114 36.2651 15.6588 35.9131 14.276 35.6366C12.3148 35.2846 11.2588 34.5554 11.2588 33.1223C11.2588 31.5886 12.5411 30.7589 14.6782 30.7589C16.74 30.7589 17.3182 31.312 17.3182 31.312L17.2931 33.1474H17.092C16.7902 32.2171 15.5331 31.3371 14.2508 31.3371C13.3457 31.3371 12.7422 31.664 12.7422 32.0914C12.7422 32.544 13.1948 32.7451 14.7034 33.0217ZM20.2417 28.5714H20.7948V30.7589H22.2531V31.2617H20.7948V36.064C20.7948 36.8937 21.5743 37.12 22.2783 36.3909L22.5297 36.7177C22.0017 37.3211 20.7445 38.1257 19.764 38.1257C18.6074 38.1257 17.9788 37.3966 17.9788 36.3909V31.2617H17.3V30.7589C18.9845 30.432 19.8897 29.5771 20.2417 28.5714ZM28.235 38.1257C27.2544 38.1257 26.7012 37.5726 26.6007 37.0697C26.2235 37.6983 25.5447 38.1257 24.4635 38.1257C22.9298 38.1257 21.8738 37.5474 21.8738 36.416C21.8738 34.9829 23.9355 33.9017 26.5755 33.9017V33.6251C26.5755 31.9154 26.3492 31.3371 25.5447 31.3371C24.8155 31.3371 24.539 31.7897 24.539 32.7451C24.539 33.5246 24.2121 34.0023 23.4327 34.0777C22.5275 34.1531 22.0247 33.6 22.075 32.8709C22.1504 31.6389 23.5081 30.7589 25.6201 30.7589C28.0841 30.7589 29.3915 31.7897 29.3915 34.0274V36.24C29.3915 36.9189 29.819 36.9943 30.0955 36.4914L30.3721 36.7177C29.995 37.4217 29.2658 38.1257 28.235 38.1257ZM25.4441 37.3463C26.0224 37.3463 26.5755 36.6171 26.5755 35.36V34.3794C25.4944 34.3794 24.715 35.4103 24.715 36.3657C24.715 36.9189 24.9412 37.3463 25.4441 37.3463ZM32.1119 28.5714H32.665V30.7589H34.1233V31.2617H32.665V36.064C32.665 36.8937 33.4444 37.12 34.1484 36.3909L34.3999 36.7177C33.8719 37.3211 32.6147 38.1257 31.6342 38.1257C30.4776 38.1257 29.849 37.3966 29.849 36.3909V31.2617H29.1702V30.7589C30.8547 30.432 31.7599 29.5771 32.1119 28.5714ZM40.5414 35.1337L40.818 35.2091C40.6168 36.7177 39.3345 38.1006 37.4237 38.1006C35.2614 38.1006 33.4511 36.8183 33.4511 34.5303C33.4511 32.192 35.3117 30.7086 37.4991 30.7086C40.0134 30.7086 40.8431 32.4686 40.8431 34.4297H36.3174C36.5437 35.7623 37.4237 36.4663 38.5551 36.4663C39.5105 36.4663 40.3654 35.8126 40.5414 35.1337ZM37.4488 31.2617C36.7197 31.2617 36.1917 32.3429 36.2671 33.9269H38.354C38.4797 32.9966 38.2785 31.2617 37.4488 31.2617ZM43.5841 26.6857V36.1143C43.5841 36.7931 43.5841 37.4971 44.7407 37.4971V38H39.6367V37.4971C40.7681 37.4971 40.7681 36.7931 40.7681 36.1143V29.2503C40.7681 28.5714 40.7681 27.8674 39.6367 27.8674V27.3646L43.5841 26.6857ZM45.6297 41.1429C46.384 41.1429 47.1383 40.1623 47.7668 38.704C47.088 37.4217 45.2274 33.7509 45.0011 33.248C44.2468 31.7143 43.7691 31.2366 43.1154 31.2366V30.7589H47.8674V31.2366C47.2388 31.2366 47.5405 32.0411 47.8423 32.6949C48.0937 33.2983 48.7474 34.5806 49.0994 35.2594L50.0297 32.7451C50.4571 31.5383 50.2308 31.2366 49.2503 31.2366V30.7589H52.6697V31.2366C51.5634 31.2366 51.312 31.3623 50.5828 33.1474C50.4068 33.5749 49.8537 35.1589 48.7725 38C47.9428 40.1371 46.9371 41.9726 45.2777 41.9726C43.8948 41.9726 42.9897 40.992 43.216 39.8354C43.392 38.9554 44.096 38.4777 44.9257 38.5531C45.7554 38.6286 45.856 39.3326 45.4285 40.0114C44.8754 40.8914 45.1771 41.1429 45.6297 41.1429ZM51.2259 38.1886C50.5471 38.1886 50.0002 37.7171 50.0002 37.0383C50.0002 36.3594 50.5471 35.888 51.2259 35.888C51.9048 35.888 52.4517 36.3594 52.4517 37.0383C52.4517 37.7171 51.9048 38.1886 51.2259 38.1886Z" fill="black"/>
</svg>
