<svg width="344" height="307" viewBox="0 0 344 307" fill="none" xmlns="http://www.w3.org/2000/svg">
<path d="M330.049 276.94H302.847C298.976 276.94 295.715 277.944 293.063 279.951C290.411 281.958 289.085 284.395 289.085 287.262C289.085 290.201 290.411 292.853 293.063 295.218C295.787 297.512 299.048 298.659 302.847 298.659H313.4C317.2 298.659 322.349 297.261 325.002 294.466C327.114 292.298 327.25 285.862 327.204 281.445C327.184 279.508 328.29 277.75 330.049 276.94V276.94ZM343.812 306.078H334.35C332.63 303.712 331.483 301.634 330.91 299.842C327.111 303.999 322.236 306.078 316.287 306.078H302.847C297.184 306.078 292.239 304.214 288.01 300.487C283.852 296.688 281.773 292.279 281.773 287.262C281.773 282.244 283.852 278.051 288.01 274.682C292.167 271.242 297.113 269.521 302.847 269.521H330.049V266.941C330.049 263.357 328.652 260.203 325.856 257.479C323.061 254.684 319.871 253.286 316.287 253.286H302.847C299.191 253.286 295.966 254.648 293.17 257.372C290.447 260.024 289.085 263.142 289.085 266.726H281.773C281.773 261.206 283.852 256.368 288.01 252.211C292.239 248.053 297.184 245.975 302.847 245.975H316.287C321.878 245.975 326.788 248.089 331.017 252.318C335.246 256.476 337.361 261.35 337.361 266.941V292.853C337.361 297.297 339.511 301.705 343.812 306.078Z" fill="#AC6CE9"/>
<path d="M269.513 253.178H255.213C251.27 253.178 247.973 254.504 245.321 257.157C242.74 259.737 241.45 262.998 241.45 266.941V306.078H234.031V245.975H241.45V251.351C245.177 247.767 249.765 245.975 255.213 245.975H269.513V253.178Z" fill="#AC6CE9"/>
<path d="M167.458 268.339H208.315V267.048C208.315 263.249 206.917 260.024 204.122 257.372C201.326 254.648 198.172 253.286 194.66 253.286H181.22C177.278 253.286 173.981 254.612 171.329 257.264C168.748 259.845 167.458 263.106 167.458 267.048V268.339ZM208.315 282.961H215.734C215.734 289.126 213.619 294.537 209.39 299.197C205.161 303.784 200.251 306.078 194.66 306.078H181.22C175.128 306.078 170.074 303.999 166.06 299.842C162.046 295.684 160.039 290.738 160.039 285.004V266.941C160.039 261.206 162.046 256.296 166.06 252.211C170.074 248.053 175.128 245.975 181.22 245.975H194.66C200.251 245.975 205.161 248.089 209.39 252.318C213.619 256.476 215.734 261.35 215.734 266.941V275.757H167.458H164.577V275.757C166.443 278.124 167.458 281.049 167.458 284.063V285.004C167.458 288.588 168.784 291.778 171.436 294.573C174.088 297.297 177.35 298.659 181.22 298.659H194.66C198.029 298.659 201.147 297.046 204.014 293.821C206.881 290.523 208.315 286.904 208.315 282.961Z" fill="#AC6CE9"/>
<path d="M86.0547 230.815H93.4735V251.351C97.2008 247.767 101.788 245.975 107.236 245.975H119.493C125.586 245.975 130.818 248.054 135.191 252.211C139.563 256.369 141.75 261.279 141.75 266.941V306.078H134.331V266.941C134.331 263.071 132.861 259.809 129.922 257.157C126.984 254.505 123.507 253.179 119.493 253.179H107.236C103.294 253.179 99.9963 254.505 97.3442 257.157C94.7637 259.737 93.4735 262.999 93.4735 266.941V306.078H86.0547V230.815Z" fill="#AC6CE9"/>
<path d="M67.8166 230.815V238.234H37.9263H34.9976V238.234C36.8491 239.72 37.9263 241.967 37.9263 244.341V306.078H30.5075V238.234H0.617188V230.815H67.8166Z" fill="#AC6CE9"/>
<path d="M257.498 14.6907C256.361 14.0381 255.497 13.146 254.906 12.0191C254.314 10.8923 254.014 9.63397 254.014 8.24889C254.014 6.86381 254.309 5.6055 254.906 4.47866C255.497 3.35182 256.361 2.46443 257.498 1.8071C258.634 1.15447 259.967 0.825806 261.493 0.825806C263.019 0.825806 264.348 1.15447 265.475 1.8071C266.601 2.45973 267.461 3.35182 268.052 4.47866C268.644 5.6055 268.94 6.86381 268.94 8.24889C268.94 9.63397 268.644 10.8923 268.052 12.0191C267.461 13.146 266.601 14.0334 265.475 14.6907C264.348 15.3433 263.019 15.672 261.493 15.672C259.967 15.672 258.634 15.3433 257.498 14.6907ZM256.277 11.282C256.737 12.1975 257.418 12.9253 258.314 13.4699C259.211 14.0146 260.272 14.2822 261.498 14.2822C262.723 14.2822 263.78 14.0099 264.667 13.4699C265.55 12.9253 266.226 12.1975 266.686 11.282C267.146 10.3664 267.381 9.35696 267.381 8.24889C267.381 7.14083 267.151 6.13137 266.686 5.2158C266.221 4.30024 265.55 3.57249 264.667 3.02785C263.78 2.48321 262.728 2.21558 261.498 2.21558C260.268 2.21558 259.211 2.4879 258.314 3.02785C257.418 3.57249 256.742 4.30024 256.277 5.2158C255.812 6.13137 255.582 7.14083 255.582 8.24889C255.582 9.35696 255.812 10.3664 256.277 11.282ZM258.268 4.5397H261.343C262.409 4.5397 263.282 4.68525 263.967 4.97635C264.653 5.26745 264.991 5.82618 264.991 6.65253C264.991 7.11735 264.888 7.50236 264.676 7.81224C264.465 8.12212 264.188 8.3381 263.845 8.46018H264.029C264.329 8.46018 264.568 8.54 264.737 8.69963C264.907 8.85927 264.996 9.07994 264.996 9.36165V11.8642H263.395V9.5119H259.864V11.8642H258.263V4.5397H258.268ZM261.615 8.03761C262.258 8.03761 262.714 7.97188 262.986 7.84041C263.258 7.70895 263.395 7.43193 263.395 7.00936C263.395 6.5868 263.258 6.33795 262.986 6.1971C262.714 6.05624 262.258 5.98581 261.615 5.98581H259.864V8.03761H261.615Z" fill="#AC6CE9"/>
<path d="M227.025 69.1667C216.498 49.0026 210.181 29.0679 208.467 13.1345C194.262 -3.34393 162.352 -3.21485 147.508 13.1488C145.794 29.0822 139.477 49.0097 128.958 69.1667C116.523 92.988 100.992 111.804 87.0875 121.52C82.362 142.531 94.2439 166.072 113.505 170.712C128.621 163.362 151.732 158.658 177.633 158.658C203.533 158.658 226.2 163.269 241.323 170.497C261.208 165.828 273.398 142.33 268.386 121.155C254.618 111.331 239.315 92.694 227.032 69.1667H227.025ZM218.033 124.511C209.299 138.866 194.434 148.941 177.561 148.941C161.907 148.941 147.974 140.265 139.068 127.544C129.531 113.919 129.847 95.7487 139.205 82.0024C143.744 75.3336 148.118 68.0409 152.191 60.2463C157.174 50.6949 161.283 41.1936 164.474 32.0868C165.994 27.7556 169.673 24.5073 174.191 23.697C176.636 23.2596 179.153 23.3026 181.591 23.8261C185.843 24.7439 189.213 27.9636 190.648 32.0652C193.838 41.1793 197.947 50.6877 202.938 60.2391C207.233 68.4712 211.873 76.1439 216.692 83.1138C225.211 95.4404 225.827 111.696 218.04 124.496L218.033 124.511Z" fill="#AC6CE9"/>
</svg>
